<svg xmlns="http://www.w3.org/2000/svg" fill="none" viewBox="0 0 128 128"><path fill="url(#a)" d="M34.213 93.73c.16.16.34.31.51.47A51.64 51.64 0 0 1 63.973 0a64 64 0 0 0-56.68 93.67 63.933 63.933 0 0 0 56.57 34.25 51.639 51.639 0 0 0 30-93.56 42.1 42.1 0 0 1-12.77 68.06l-.29.14a42.12 42.12 0 0 1-46.58-8.84"/><path fill="url(#b)" d="M93.753 34.19a42.094 42.094 0 0 1 11.62 37.446 42.103 42.103 0 0 1-24.28 30.784l-.29.14s-41.86 23.1-73.51-8.9a64.002 64.002 0 0 0 94.589 21.788 63.997 63.997 0 0 0 7.341-96.788l-3 11.65a.8.8 0 0 1-.56.57l-11.89 3.26"/><path fill="url(#c)" d="M115.403 76.27a51.57 51.57 0 0 0-21.49-41.92 42.104 42.104 0 0 1 11.44 37.397 42.106 42.106 0 0 1-24.26 30.673l-.29.14s-41.86 23.1-73.51-8.9a63.935 63.935 0 0 0 56.57 34.26 51.65 51.65 0 0 0 51.54-51.65Z"/><path fill="url(#d)" d="M109.233 18.72a63.73 63.73 0 0 0-42-18.63h-.24c-1 0-2-.07-3-.07a51.64 51.64 0 0 0-29.31 94.18c-.17-.16-.34-.31-.51-.47a42.101 42.101 0 1 1 59.54-59.54l12.34-3.38 3.18-12.09Z"/><defs><linearGradient id="a" x1="-5.122" x2="75.465" y1="8.63" y2="98.023" gradientUnits="userSpaceOnUse"><stop offset=".2" stop-color="#00ED6B"/><stop offset=".99" stop-color="#C5FF90"/></linearGradient><linearGradient id="b" x1="63.977" x2="63.977" y1=".059" y2="127.945" gradientUnits="userSpaceOnUse"><stop offset=".05" stop-color="#FC346B"/><stop offset=".16" stop-color="#FC3C6D"/><stop offset=".19" stop-color="#FC4B70"/><stop offset=".33" stop-color="#FD8A80"/><stop offset=".46" stop-color="#FEB98B"/><stop offset=".55" stop-color="#FFD591"/><stop offset=".61" stop-color="#FFE094"/></linearGradient><linearGradient id="c" x1="41.909" x2="139.56" y1="131.707" y2="-49.575" gradientUnits="userSpaceOnUse"><stop offset=".11" stop-color="#FFFF5D"/><stop offset=".91" stop-color="#EC0034"/></linearGradient><linearGradient id="d" x1="11.893" x2="104.823" y1="64.73" y2="11.08" gradientUnits="userSpaceOnUse"><stop stop-color="#F7FF98"/><stop offset=".44" stop-color="#8AF2CF"/><stop offset=".69" stop-color="#47EAF1"/></linearGradient></defs></svg>